<svg width="70" height="63" viewBox="0 0 70 63" fill="none" xmlns="http://www.w3.org/2000/svg">
<path fill-rule="evenodd" clip-rule="evenodd" d="M1.19552 8.61835C-5.38055 21.0876 16.747 62.6786 29.1893 62.9986C34.8952 63.1454 35.504 51.7962 33.4079 48.3685C30.6124 43.7971 25.3554 43.4143 22.5822 45.9033C20.668 47.6212 20.5614 51.4209 20.7199 53.248C15.2298 43.9849 -7.92366 8.79171 13.8176 4.85832C21.9793 3.38168 32.4383 7.45858 32.6208 13.8002C33.6693 12.2098 34.6941 7.77036 31.8577 5.48978C24.9619 -0.0546863 7.82514 -3.95241 1.19552 8.61835Z" fill="#DE657F"/>
<path fill-rule="evenodd" clip-rule="evenodd" d="M68.8045 8.36054C75.3806 20.8298 53.2531 62.4207 40.8107 62.7408C35.1048 62.8876 34.496 51.5384 36.5921 48.1107C39.3876 43.5393 44.6446 43.1565 47.4178 45.6454C49.332 47.3634 49.4386 51.1631 49.2801 52.9902C54.7702 43.7271 77.9237 8.5339 56.1825 4.60051C48.0207 3.12388 37.5617 7.20077 37.3792 13.5424C36.3307 11.952 35.3059 7.51254 38.1423 5.23196C45.0382 -0.312504 62.1749 -4.21021 68.8045 8.36054Z" fill="#DE657F"/>
</svg>
